<svg xmlns="http://www.w3.org/2000/svg" id="canvas" viewBox="365.120 202.498 548.205 237.402"><path d="M 370.06,296.74 C 371.40 296.26, 372.71 295.14, 374.86 292.75 C 377.01 290.36, 377.98 288.47, 380.81 284.79 C 383.63 281.12, 385.48 278.73, 388.98 274.37 C 392.49 270.01, 394.42 267.62, 398.34 262.98 C 402.26 258.34, 404.41 255.86, 408.58 251.16 C 412.75 246.46, 415.00 243.97, 419.17 239.50 C 423.33 235.02, 425.49 232.73, 429.41 228.79 C 433.32 224.86, 435.29 222.89, 438.73 219.82 C 442.18 216.75, 443.97 215.42, 446.65 213.43 C 449.33 211.44, 450.55 210.77, 452.14 209.88 C 453.74 208.99, 454.06 208.64, 454.62 208.99 C 455.18 209.34, 454.88 209.70, 454.95 211.64 C 455.01 213.59, 455.24 214.97, 454.94 218.71 C 454.65 222.45, 454.52 224.97, 453.47 230.35 C 452.42 235.73, 451.62 238.97, 449.71 245.60 C 447.79 252.23, 446.50 255.99, 443.89 263.49 C 441.27 270.98, 439.67 275.12, 436.63 283.07 C 433.58 291.03, 431.84 295.31, 428.65 303.27 C 425.46 311.23, 423.74 315.40, 420.66 322.89 C 417.59 330.37, 415.99 334.16, 413.26 340.69 C 410.53 347.22, 409.24 350.33, 407.01 355.53 C 404.79 360.74, 403.75 363.05, 402.14 366.71 C 400.52 370.36, 399.72 371.80, 398.94 373.80 C 398.16 375.81, 398.26 376.06, 398.22 376.73 C 398.18 377.40, 398.61 377.28, 398.75 377.16 C 398.89 377.04, 399.28 376.19, 398.90 376.13 C 398.53 376.06, 397.07 376.40, 396.86 376.82 C 396.65 377.25, 397.23 377.99, 397.86 378.26 C 398.49 378.54, 399.04 378.75, 400.00 378.20 C 400.97 377.66, 401.60 377.57, 402.68 375.54 C 403.77 373.51, 404.07 371.83, 405.44 368.03 C 406.81 364.24, 407.55 361.84, 409.54 356.55 C 411.53 351.26, 412.79 348.14, 415.40 341.56 C 418.02 334.99, 419.59 331.19, 422.62 323.68 C 425.65 316.18, 427.36 312.00, 430.55 304.03 C 433.75 296.06, 435.50 291.79, 438.61 283.84 C 441.72 275.89, 443.34 271.76, 446.09 264.28 C 448.84 256.79, 450.19 253.04, 452.36 246.42 C 454.53 239.79, 455.48 236.60, 456.95 231.16 C 458.42 225.73, 459.14 223.31, 459.71 219.24 C 460.27 215.16, 460.52 213.39, 459.79 210.80 C 459.07 208.21, 457.94 207.25, 456.09 206.29 C 454.24 205.33, 452.96 205.25, 450.55 206.01 C 448.15 206.76, 446.89 207.81, 444.06 210.07 C 441.23 212.34, 439.75 214.00, 436.39 217.32 C 433.03 220.65, 431.11 222.65, 427.25 226.70 C 423.40 230.75, 421.25 233.06, 417.09 237.58 C 412.94 242.10, 410.69 244.60, 406.48 249.29 C 402.27 253.97, 400.09 256.44, 396.06 261.01 C 392.02 265.58, 390.00 267.89, 386.30 272.12 C 382.60 276.35, 380.59 278.63, 377.57 282.16 C 374.55 285.70, 373.07 287.18, 371.19 289.78 C 369.30 292.38, 368.39 293.76, 368.16 295.16 C 367.93 296.55, 368.72 297.22, 370.06 296.74" style="stroke: black; fill: black;"/><path d="M 371.69,319.16 C 372.34 319.78, 372.90 320.09, 374.66 320.15 C 376.42 320.20, 377.60 320.21, 380.49 319.44 C 383.38 318.68, 385.14 317.65, 389.11 316.32 C 393.09 314.99, 395.54 314.33, 400.36 312.79 C 405.18 311.26, 407.92 310.39, 413.21 308.66 C 418.51 306.93, 421.41 305.95, 426.84 304.16 C 432.27 302.37, 435.14 301.42, 440.36 299.72 C 445.58 298.02, 448.26 297.07, 452.96 295.68 C 457.65 294.28, 460.03 293.61, 463.84 292.74 C 467.65 291.87, 469.62 291.60, 471.99 291.33 C 474.36 291.06, 475.01 290.62, 475.71 291.39 C 476.41 292.17, 475.87 292.78, 475.48 295.19 C 475.10 297.60, 474.94 299.47, 473.79 303.44 C 472.64 307.41, 471.58 310.18, 469.75 315.05 C 467.92 319.91, 466.62 322.91, 464.62 327.78 C 462.62 332.64, 461.46 335.29, 459.75 339.37 C 458.03 343.46, 456.71 345.33, 456.06 348.22 C 455.41 351.11, 455.69 352.48, 456.50 353.81 C 457.31 355.15, 458.39 355.49, 460.11 354.88 C 461.84 354.26, 463.17 353.32, 465.12 350.75 C 467.06 348.18, 467.78 345.86, 469.85 342.03 C 471.92 338.21, 473.12 335.72, 475.46 331.60 C 477.81 327.48, 479.19 325.14, 481.57 321.45 C 483.95 317.76, 485.26 315.91, 487.37 313.16 C 489.49 310.40, 490.49 309.35, 492.13 307.69 C 493.77 306.02, 494.16 305.43, 495.57 304.82 C 496.97 304.21, 497.43 304.41, 499.17 304.64 C 500.90 304.87, 501.77 305.52, 504.24 305.98 C 506.71 306.45, 508.22 306.73, 511.52 306.98 C 514.82 307.24, 516.74 307.31, 520.75 307.25 C 524.76 307.19, 527.00 307.11, 531.55 306.67 C 536.10 306.23, 538.67 305.85, 543.51 305.07 C 548.35 304.29, 551.04 303.74, 555.75 302.79 C 560.47 301.84, 562.97 301.21, 567.08 300.33 C 571.20 299.44, 573.39 299.23, 576.33 298.37 C 579.26 297.50, 580.51 296.94, 581.75 296.00 C 582.99 295.05, 583.10 294.29, 582.53 293.66 C 581.96 293.02, 580.93 292.41, 578.91 292.80 C 576.89 293.20, 575.38 293.83, 572.43 295.62 C 569.48 297.41, 567.71 298.97, 564.18 301.76 C 560.64 304.56, 558.52 306.23, 554.75 309.58 C 550.98 312.93, 548.79 314.93, 545.33 318.51 C 541.87 322.08, 540.05 324.09, 537.44 327.45 C 534.82 330.81, 533.36 332.38, 532.25 335.29 C 531.14 338.21, 531.17 339.84, 531.89 342.02 C 532.60 344.20, 533.62 345.30, 535.83 346.20 C 538.04 347.11, 539.79 347.32, 542.94 346.55 C 546.10 345.77, 547.86 344.51, 551.60 342.33 C 555.34 340.14, 557.50 338.66, 561.63 335.63 C 565.76 332.60, 568.07 330.68, 572.26 327.17 C 576.45 323.67, 578.75 321.59, 582.59 318.10 C 586.42 314.62, 588.84 312.60, 591.44 309.74 C 594.04 306.88, 595.08 305.34, 595.56 303.80 C 596.05 302.25, 595.19 301.62, 593.85 302.02 C 592.52 302.42, 590.94 303.30, 588.90 305.79 C 586.86 308.28, 585.55 310.76, 583.67 314.49 C 581.78 318.21, 580.64 320.68, 579.49 324.41 C 578.34 328.14, 577.62 330.09, 577.91 333.12 C 578.20 336.15, 578.91 337.72, 580.94 339.57 C 582.96 341.42, 584.66 342.28, 588.02 342.35 C 591.38 342.42, 593.45 341.55, 597.73 339.90 C 602.01 338.25, 604.53 336.87, 609.44 334.10 C 614.34 331.33, 617.20 329.44, 622.27 326.05 C 627.34 322.65, 630.13 320.50, 634.79 317.12 C 639.45 313.74, 642.18 311.75, 645.58 309.15 C 648.97 306.54, 650.59 305.37, 651.77 304.08 C 652.95 302.80, 652.40 302.21, 651.48 302.70 C 650.55 303.20, 649.09 304.12, 647.14 306.56 C 645.18 309.01, 643.81 311.39, 641.69 314.91 C 639.57 318.43, 638.03 320.71, 636.54 324.16 C 635.05 327.62, 634.18 329.45, 634.23 332.18 C 634.28 334.92, 634.97 336.30, 636.79 337.84 C 638.60 339.38, 640.17 340.16, 643.30 339.87 C 646.44 339.59, 648.35 338.43, 652.47 336.41 C 656.59 334.39, 659.07 332.82, 663.91 329.77 C 668.75 326.73, 671.54 324.74, 676.66 321.18 C 681.78 317.62, 684.65 315.44, 689.50 311.97 C 694.34 308.50, 697.21 306.45, 700.89 303.85 C 704.57 301.24, 706.40 300.13, 707.91 298.93 C 709.43 297.72, 709.03 296.96, 708.49 297.82 C 707.94 298.68, 707.11 299.78, 705.18 303.21 C 703.25 306.63, 701.98 309.49, 698.85 314.96 C 695.73 320.42, 693.69 323.87, 689.57 330.53 C 685.44 337.19, 683.00 340.96, 678.20 348.26 C 673.41 355.56, 670.69 359.56, 665.59 367.04 C 660.49 374.53, 657.77 378.54, 652.70 385.69 C 647.64 392.84, 645.06 396.52, 640.26 402.80 C 635.47 409.08, 633.03 412.20, 628.71 417.11 C 624.39 422.01, 622.20 424.27, 618.66 427.33 C 615.13 430.39, 613.27 431.16, 611.05 432.42 C 608.82 433.68, 608.25 434.07, 607.54 433.65 C 606.82 433.22, 607.15 432.66, 607.47 430.29 C 607.79 427.92, 607.64 425.97, 609.13 421.80 C 610.62 417.64, 611.71 414.75, 614.93 409.46 C 618.14 404.17, 620.24 401.09, 625.22 395.35 C 630.20 389.61, 633.37 386.55, 639.84 380.76 C 646.32 374.97, 650.01 371.96, 657.60 366.40 C 665.19 360.84, 669.46 358.11, 677.78 352.97 C 686.10 347.83, 690.73 345.37, 699.21 340.69 C 707.69 336.00, 712.07 333.74, 720.16 329.55 C 728.24 325.36, 732.35 323.39, 739.64 319.73 C 746.92 316.08, 750.50 314.35, 756.59 311.28 C 762.69 308.21, 765.50 306.78, 770.11 304.38 C 774.73 301.98, 776.85 301.18, 779.67 299.27 C 782.49 297.36, 783.43 296.47, 784.21 294.83 C 784.99 293.19, 784.70 292.15, 783.56 291.08 C 782.41 290.00, 781.00 289.23, 778.48 289.43 C 775.95 289.64, 774.19 290.37, 770.93 292.09 C 767.67 293.80, 765.81 295.23, 762.18 297.99 C 758.56 300.75, 756.43 302.48, 752.81 305.89 C 749.20 309.31, 747.21 311.38, 744.10 315.06 C 741.00 318.74, 739.44 320.80, 737.27 324.31 C 735.10 327.82, 733.91 329.58, 733.28 332.61 C 732.65 335.64, 733.00 337.29, 734.12 339.46 C 735.25 341.62, 736.42 342.68, 738.91 343.45 C 741.40 344.22, 743.21 344.24, 746.58 343.31 C 749.95 342.39, 751.83 341.15, 755.77 338.82 C 759.70 336.49, 761.98 334.88, 766.26 331.66 C 770.53 328.44, 772.94 326.40, 777.15 322.73 C 781.37 319.07, 783.67 316.85, 787.34 313.34 C 791.00 309.82, 793.34 307.90, 795.47 305.15 C 797.61 302.39, 798.09 300.84, 798.00 299.56 C 797.92 298.29, 796.73 297.97, 795.06 298.78 C 793.39 299.58, 791.82 300.90, 789.67 303.60 C 787.53 306.29, 786.16 308.71, 784.33 312.27 C 782.50 315.83, 781.31 318.04, 780.52 321.40 C 779.74 324.76, 779.59 326.53, 780.40 329.07 C 781.21 331.62, 782.17 332.92, 784.58 334.12 C 786.98 335.31, 788.81 335.54, 792.42 335.03 C 796.04 334.53, 798.18 333.49, 802.65 331.59 C 807.12 329.68, 809.74 328.22, 814.77 325.51 C 819.79 322.79, 822.71 320.93, 827.79 318.02 C 832.86 315.10, 835.68 313.32, 840.12 310.93 C 844.56 308.55, 847.14 307.53, 849.98 306.08 C 852.82 304.63, 853.72 303.97, 854.32 303.68 C 854.93 303.39, 854.17 303.45, 853.02 304.62 C 851.87 305.80, 850.59 307.04, 848.59 309.56 C 846.60 312.08, 845.16 314.22, 843.05 317.24 C 840.93 320.26, 839.16 321.90, 838.01 324.66 C 836.86 327.42, 836.70 329.11, 837.27 331.03 C 837.85 332.95, 838.67 333.97, 840.89 334.25 C 843.12 334.53, 844.75 333.94, 848.38 332.43 C 852.02 330.91, 854.32 329.21, 859.09 326.66 C 863.86 324.11, 866.89 322.28, 872.23 319.67 C 877.58 317.06, 880.80 315.51, 885.83 313.62 C 890.86 311.73, 893.71 310.98, 897.41 310.21 C 901.10 309.43, 902.58 309.48, 904.32 309.74 C 906.05 310.00, 906.12 310.18, 906.08 311.51 C 906.05 312.83, 905.11 313.91, 904.14 316.37 C 903.18 318.83, 902.39 320.66, 901.25 323.80 C 900.11 326.94, 899.08 328.90, 898.46 332.07 C 897.83 335.23, 897.78 337.03, 898.13 339.62 C 898.48 342.22, 899.19 343.43, 900.22 345.04 C 901.24 346.65, 902.11 347.13, 903.25 347.65 C 904.39 348.18, 905.28 348.02, 905.92 347.67 C 906.56 347.33, 906.56 346.49, 906.43 345.92 C 906.30 345.35, 905.70 345.41, 905.27 344.82 C 904.85 344.23, 904.66 344.10, 904.32 342.98 C 903.97 341.86, 903.52 341.13, 903.54 339.22 C 903.56 337.31, 903.71 336.09, 904.42 333.43 C 905.12 330.76, 905.97 328.99, 907.08 325.89 C 908.18 322.79, 909.44 320.97, 909.94 317.92 C 910.45 314.87, 910.56 312.97, 909.61 310.63 C 908.67 308.28, 907.81 307.03, 905.22 306.20 C 902.62 305.36, 900.74 305.59, 896.62 306.44 C 892.50 307.30, 889.79 308.44, 884.62 310.47 C 879.45 312.50, 876.25 314.08, 870.78 316.59 C 865.31 319.10, 862.15 320.77, 857.28 323.02 C 852.40 325.27, 849.74 326.31, 846.39 327.82 C 843.04 329.33, 841.78 329.93, 840.51 330.57 C 839.25 331.22, 839.48 331.59, 840.07 331.04 C 840.65 330.49, 841.82 329.86, 843.45 327.82 C 845.08 325.79, 846.15 323.82, 848.22 320.86 C 850.28 317.90, 852.09 315.99, 853.77 313.02 C 855.45 310.06, 856.41 308.30, 856.61 306.02 C 856.81 303.73, 856.44 302.36, 854.76 301.59 C 853.09 300.82, 851.52 300.90, 848.24 302.16 C 844.97 303.41, 842.81 305.26, 838.39 307.86 C 833.98 310.47, 831.20 312.28, 826.16 315.18 C 821.11 318.09, 818.15 319.89, 813.15 322.39 C 808.14 324.89, 805.42 326.15, 801.12 327.68 C 796.82 329.21, 794.65 329.52, 791.65 330.04 C 788.65 330.55, 787.58 330.63, 786.14 330.27 C 784.69 329.90, 784.48 329.64, 784.43 328.21 C 784.38 326.77, 784.83 325.67, 785.90 323.07 C 786.97 320.47, 787.98 318.40, 789.79 315.21 C 791.59 312.02, 793.34 309.99, 794.93 307.13 C 796.52 304.26, 797.42 302.61, 797.74 300.89 C 798.06 299.18, 797.68 298.29, 796.54 298.55 C 795.40 298.81, 794.39 299.73, 792.03 302.17 C 789.68 304.61, 788.18 307.16, 784.75 310.76 C 781.33 314.35, 779.05 316.57, 774.91 320.15 C 770.78 323.72, 768.33 325.69, 764.08 328.65 C 759.82 331.60, 757.43 333.02, 753.63 334.91 C 749.83 336.80, 747.85 337.25, 745.08 338.09 C 742.31 338.93, 741.30 339.15, 739.77 339.12 C 738.25 339.08, 737.82 338.99, 737.47 337.93 C 737.12 336.86, 737.33 336.08, 738.01 333.78 C 738.70 331.49, 739.10 329.70, 740.91 326.45 C 742.72 323.20, 744.15 321.07, 747.07 317.54 C 749.98 314.01, 751.94 311.96, 755.48 308.80 C 759.03 305.64, 761.19 304.01, 764.79 301.73 C 768.40 299.46, 770.51 298.76, 773.52 297.41 C 776.53 296.07, 778.02 295.89, 779.85 295.02 C 781.69 294.15, 782.28 293.46, 782.71 293.05 C 783.14 292.65, 783.05 292.42, 782.00 293.00 C 780.95 293.59, 780.11 294.19, 777.45 295.96 C 774.79 297.73, 773.08 299.21, 768.70 301.86 C 764.31 304.51, 761.52 306.00, 755.52 309.22 C 749.53 312.44, 745.97 314.21, 738.73 317.95 C 731.48 321.69, 727.38 323.68, 719.31 327.92 C 711.23 332.16, 706.84 334.43, 698.35 339.13 C 689.85 343.84, 685.21 346.30, 676.84 351.44 C 668.46 356.59, 664.16 359.32, 656.48 364.87 C 648.81 370.42, 645.08 373.42, 638.45 379.19 C 631.83 384.96, 628.61 387.99, 623.38 393.71 C 618.15 399.43, 615.90 402.45, 612.29 407.77 C 608.68 413.08, 607.24 415.82, 605.32 420.30 C 603.40 424.78, 602.53 427.02, 602.70 430.16 C 602.87 433.30, 604.15 434.83, 606.17 435.99 C 608.20 437.15, 609.90 437.26, 612.81 435.98 C 615.72 434.69, 617.17 433.02, 620.72 429.56 C 624.27 426.10, 626.31 423.78, 630.55 418.68 C 634.80 413.58, 637.19 410.43, 641.94 404.06 C 646.69 397.70, 649.26 394.01, 654.31 386.83 C 659.37 379.65, 662.09 375.64, 667.22 368.16 C 672.35 360.68, 675.08 356.69, 679.98 349.44 C 684.88 342.19, 687.36 338.45, 691.71 331.91 C 696.06 325.36, 698.30 322.06, 701.74 316.71 C 705.18 311.36, 707.12 308.90, 708.91 305.13 C 710.71 301.37, 711.18 299.73, 710.70 297.87 C 710.22 296.02, 708.91 295.29, 706.51 295.88 C 704.12 296.47, 702.51 298.11, 698.73 300.82 C 694.96 303.54, 692.42 305.89, 687.65 309.45 C 682.89 313.01, 680.02 315.16, 674.90 318.61 C 669.78 322.06, 666.92 323.95, 662.07 326.69 C 657.22 329.44, 654.57 330.75, 650.65 332.33 C 646.73 333.91, 644.86 334.03, 642.48 334.60 C 640.10 335.18, 639.51 335.59, 638.76 335.20 C 638.00 334.82, 638.16 334.41, 638.70 332.68 C 639.25 330.96, 639.88 329.50, 641.49 326.57 C 643.11 323.64, 644.64 321.41, 646.76 318.02 C 648.88 314.63, 650.75 312.57, 652.10 309.61 C 653.46 306.65, 653.92 304.88, 653.54 303.23 C 653.16 301.57, 652.28 300.78, 650.21 301.35 C 648.14 301.91, 646.67 303.40, 643.20 306.03 C 639.73 308.67, 637.39 311.05, 632.86 314.52 C 628.32 318.00, 625.53 320.11, 620.51 323.39 C 615.49 326.67, 612.58 328.45, 607.73 330.94 C 602.89 333.42, 600.25 334.55, 596.29 335.82 C 592.33 337.09, 590.49 337.13, 587.94 337.29 C 585.39 337.45, 584.57 337.48, 583.53 336.63 C 582.49 335.78, 582.55 335.12, 582.74 333.03 C 582.93 330.94, 583.24 329.30, 584.50 326.17 C 585.75 323.03, 587.09 320.76, 589.02 317.35 C 590.95 313.95, 592.79 311.96, 594.14 309.14 C 595.50 306.33, 595.95 304.73, 595.81 303.28 C 595.67 301.82, 594.97 301.20, 593.44 301.87 C 591.91 302.55, 590.84 303.94, 588.17 306.66 C 585.51 309.38, 583.74 311.92, 580.11 315.48 C 576.48 319.05, 574.18 321.09, 570.04 324.48 C 565.90 327.87, 563.54 329.71, 559.41 332.43 C 555.27 335.16, 552.99 336.41, 549.37 338.12 C 545.76 339.82, 543.87 340.12, 541.35 340.96 C 538.83 341.80, 538.00 342.26, 536.78 342.32 C 535.56 342.38, 535.25 342.29, 535.24 341.27 C 535.24 340.25, 535.67 339.49, 536.77 337.22 C 537.87 334.94, 538.49 333.12, 540.74 329.90 C 543.00 326.68, 544.74 324.59, 548.05 321.12 C 551.36 317.65, 553.53 315.66, 557.30 312.55 C 561.06 309.45, 563.23 307.89, 566.88 305.59 C 570.54 303.28, 572.69 302.63, 575.58 301.04 C 578.46 299.45, 579.80 298.97, 581.30 297.63 C 582.79 296.28, 583.14 295.34, 583.05 294.33 C 582.96 293.32, 582.46 292.76, 580.85 292.58 C 579.23 292.40, 577.91 292.65, 574.96 293.41 C 572.01 294.16, 570.09 295.21, 566.09 296.35 C 562.10 297.49, 559.62 298.12, 554.99 299.12 C 550.36 300.11, 547.68 300.64, 542.93 301.33 C 538.19 302.03, 535.66 302.35, 531.25 302.59 C 526.83 302.83, 524.67 302.78, 520.86 302.53 C 517.05 302.28, 515.32 301.86, 512.18 301.36 C 509.05 300.85, 507.77 300.34, 505.18 300.01 C 502.60 299.68, 501.50 299.53, 499.24 299.70 C 496.98 299.88, 495.96 299.98, 493.86 300.88 C 491.76 301.79, 490.76 302.31, 488.74 304.24 C 486.73 306.17, 485.90 307.51, 483.78 310.51 C 481.66 313.52, 480.52 315.47, 478.14 319.26 C 475.75 323.04, 474.38 325.41, 471.85 329.43 C 469.31 333.46, 467.83 335.82, 465.45 339.40 C 463.08 342.97, 461.47 344.69, 459.96 347.31 C 458.45 349.93, 458.16 351.24, 457.89 352.49 C 457.61 353.74, 457.99 354.14, 458.58 353.57 C 459.17 353.00, 459.86 352.20, 460.83 349.64 C 461.80 347.09, 462.00 344.89, 463.43 340.79 C 464.87 336.70, 466.01 334.03, 468.01 329.17 C 470.00 324.31, 471.39 321.37, 473.42 316.50 C 475.45 311.63, 476.72 309.02, 478.16 304.83 C 479.60 300.63, 480.61 298.69, 480.60 295.54 C 480.59 292.39, 479.87 290.83, 478.11 289.07 C 476.34 287.30, 474.84 286.74, 471.79 286.70 C 468.74 286.67, 466.81 287.75, 462.84 288.90 C 458.87 290.05, 456.63 290.89, 451.94 292.45 C 447.25 294.02, 444.59 294.99, 439.38 296.74 C 434.16 298.48, 431.31 299.44, 425.88 301.19 C 420.45 302.94, 417.54 303.90, 412.22 305.49 C 406.91 307.07, 404.19 307.88, 399.31 309.09 C 394.44 310.31, 391.96 310.78, 387.86 311.58 C 383.77 312.38, 381.68 312.34, 378.82 313.09 C 375.97 313.83, 375.06 314.52, 373.57 315.31 C 372.08 316.10, 371.75 316.28, 371.38 317.05 C 371.00 317.82, 371.03 318.54, 371.69 319.16" style="stroke: black; fill: black;"/></svg>